<?xml version="1.0" standalone="no"?>
<!DOCTYPE svg PUBLIC "-//W3C//DTD SVG 1.1//EN" "http://www.w3.org/Graphics/SVG/1.1/DTD/svg11.dtd" >
<!--
2013-9-30: Created.
-->
<svg>
<metadata>
Created by iconfont
</metadata>
<defs>

<font id="iconfont" horiz-adv-x="1024" >
  <font-face
    font-family="iconfont"
    font-weight="500"
    font-stretch="normal"
    units-per-em="1024"
    ascent="896"
    descent="-128"
  />
    <missing-glyph />
    
    <glyph glyph-name="x" unicode="x" horiz-adv-x="1001"
d="M281 543q-27 -1 -53 -1h-83q-18 0 -36.5 -6t-32.5 -18.5t-23 -32t-9 -45.5v-76h912v41q0 16 -0.5 30t-0.5 18q0 13 -5 29t-17 29.5t-31.5 22.5t-49.5 9h-133v-97h-438v97zM955 310v-52q0 -23 0.5 -52t0.5 -58t-10.5 -47.5t-26 -30t-33 -16t-31.5 -4.5q-14 -1 -29.5 -0.5
t-29.5 0.5h-32l-45 128h-439l-44 -128h-29h-34q-20 0 -45 1q-25 0 -41 9.5t-25.5 23t-13.5 29.5t-4 30v167h911zM163 247q-12 0 -21 -8.5t-9 -21.5t9 -21.5t21 -8.5q13 0 22 8.5t9 21.5t-9 21.5t-22 8.5zM316 123q-8 -26 -14 -48q-5 -19 -10.5 -37t-7.5 -25t-3 -15t1 -14.5
t9.5 -10.5t21.5 -4h37h67h81h80h64h36q23 0 34 12t2 38q-5 13 -9.5 30.5t-9.5 34.5q-5 19 -11 39h-368zM336 498v228q0 11 2.5 23t10 21.5t20.5 15.5t34 6h188q31 0 51.5 -14.5t20.5 -52.5v-227h-327z" />
    

    
    <glyph glyph-name="fangdajing" unicode="&#58883;" d="M430.306908-32.989977c-215.618802 0-391.005298 175.386496-391.005298 391.004275 0 215.618802 175.386496 391.023718 391.005298 391.023718 215.617779 0 391.005298-175.404915 391.005298-391.023718C821.311183 142.395496 645.924687-32.989977 430.306908-32.989977zM430.306908 691.81678c-184.066179 0-333.785086-149.736303-333.785086-333.803505 0-184.066179 149.718907-333.783039 333.785086-333.783039 184.02934 0 333.784062 149.717883 333.784062 333.783039C764.089947 542.080477 614.336248 691.81678 430.306908 691.81678zM930.9083-147.394586c-13.1853 0-26.523073 4.583388-37.328164 13.933337l-209.807447 181.196829c-23.914666 20.639063-26.523073 56.773028-5.885034 80.68974 20.638039 23.916712 56.773028 26.599821 80.688717 5.887081l209.80847-181.197852c23.914666-20.638039 26.524097-56.772005 5.886057-80.690764C962.946994-140.688861 947.00286-147.394586 930.9083-147.394586z"  horiz-adv-x="1024" />

    
    <glyph glyph-name="feiji" unicode="&#58882;" d="M669.744 523.376l-95.648-95.44-177.424 66.32c-16.976 4.4-34.08 10.08-55.184-11.056-10.736-10.768-33.104-33.184 0-66.352l121.664-99.616-79.152-78.976-73.856 18.448c-10.96 2.832-18.32 0.608-23.952-5.584-2.832-3.536-23.408-18.784-9.072-33.152l85.888-66.8 66.8-85.888c10.384-10.4 20.032-3.904 33.216 8.624 8.352 8.368 6.544 12.688 4.032 24.88l-16.688 73.328 78.624 78.896 99.456-121.664c33.104-33.168 55.472-10.752 66.208 0 21.088 21.136 15.424 38.272 11.04 55.296l-65.744 177.712 95.264 95.6c18.8 18.848 23.616 51.184 4.912 69.936C721.392 546.592 688.544 542.208 669.744 523.376zM719.792 477.712l-111.776-112.176 67.584-185.936c3.328-10.656 1.264-23.84-3.04-28.144-12.24-12.256-20.96-6.416-25.584-1.296l-108.08 146.016-119.632-120.064 21.536-79.952c-8.496 8.512-58.112 74.976-59.312 76.176-0.784 0.784-66.064 49.456-73.104 56.512l76.672-20.688 121.904 119.696-144.976 107.296c-4.16 3.728-9.616 14.704 1.568 25.92 4.288 4.304 17.344 5.616 27.968 2.288l185.12-67.072 113.296 111.248c7.904 7.92 23.408 7.104 30.352 0.16C727.232 500.752 727.696 485.632 719.792 477.712zM512 804C233.648 804 8 578.352 8 300S233.648-204 512-204c278.352 0 504 225.648 504 504S790.352 804 512 804zM512-188C242.912-188 24 30.912 24 300S242.912 788 512 788 1000 569.088 1000 300 781.088-188 512-188z"  horiz-adv-x="1024" />

    
    <glyph glyph-name="biao" unicode="&#58898;" d="M908.730185 537.566674l-98.830913 98.81761c-5.460362 5.458315-14.301727 5.458315-19.762089 0l-19.762089-19.761066c-5.457292-5.458315-5.457292-14.302751 0-19.762089l98.80533-98.81761c5.460362-5.458315 14.329357-5.458315 19.789719 0l19.760043 19.761066C914.189524 523.26597 914.189524 532.108359 908.730185 537.566674zM839.541383 527.686652l-39.522132 39.521109-33.95944-33.942043c-69.547982 63.435775-162.057933 102.122889-263.600607 102.122889-216.086453 0-391.286708-175.186951-391.286708-391.286708s175.200254-391.286708 391.286708-391.286708c216.086453 0 391.286708 175.186951 391.286708 391.286708 0 94.426603-33.45188 181.040263-89.149413 248.641917L839.541383 527.686652zM837.848834 244.101899c0-185.231725-150.144602-335.388607-335.388607-335.388607-185.244005 0-335.388607 150.156882-335.388607 335.388607s150.144602 335.388607 335.388607 335.388607C687.704233 579.490505 837.848834 429.333624 837.848834 244.101899zM558.358329 691.286708l83.847663 0L642.205992 747.184809 390.664026 747.184809l0-55.898101 83.847663 0 0-55.898101 27.948539 0 55.898101 0L558.358329 691.286708zM711.395818 444.834666c-5.460362 5.460362-14.33038 5.460362-19.789719 0L553.253054 306.496971c-3.918239-3.919263-5.008061-9.577123-3.301186-14.478759-5.042853 4.935406-11.939937 7.982812-19.544125 7.982812l-55.898101 0c-15.420201 0-27.949562-12.514012-27.949562-27.949562l0-55.898101c0-15.435551 12.529361-27.949562 27.949562-27.949562l55.898101 0c15.420201 0 27.949562 12.514012 27.949562 27.949562l0 55.898101c0 4.523013-1.082658 8.7902-2.991124 12.570293l17.646915-17.659195c5.460362-5.445012 14.33038-5.445012 19.789719 0l138.353045 138.338718c5.430686 5.460362 5.430686 14.316054 0 19.762089L711.395818 444.834666zM530.408767 230.127629c0-7.724938-6.248308-13.974269-13.974269-13.974269l-27.948539 0c-7.724938 0-13.974269 6.249331-13.974269 13.974269l0 27.949562c0 7.724938 6.249331 13.974269 13.974269 13.974269l27.948539 0c7.725962 0 13.974269-6.249331 13.974269-13.974269L530.408767 230.127629z"  horiz-adv-x="1024" />

    
    <glyph glyph-name="jiudian" unicode="&#58887;" d="M510.54537 780.092289c264.333294 0 478.617705-214.282365 478.617705-478.615659 0-264.330224-214.284411-478.618729-478.617705-478.618729-264.333294 0-478.616682 214.288504-478.616682 478.618729C31.928688 565.809925 246.211053 780.092289 510.54537 780.092289L510.54537 780.092289zM527.40434 693.708873l0-663.059438L673.083234 30.649436 673.083234 598.547537 527.40434 693.708873 527.40434 693.708873zM684.482865 284.378208l0-250.77551 178.384783 0L862.867648 227.397449 684.482865 284.378208 684.482865 284.378208zM759.805364 88.145941 759.805364 131.262948l-54.515614 19.792788 0-47.039339L759.805364 88.145941 759.805364 88.145941zM759.805364 170.420783l0 43.093471-54.515614 19.799952 0-47.01785L759.805364 170.420783 759.805364 170.420783zM828.187801 68.345989l0 43.090401L773.644557 131.262948l0-47.051619L828.187801 68.345989 828.187801 68.345989zM828.187801 150.588085l0.013303 43.12417-54.536081 19.803022 0-47.053666L828.187801 150.588085 828.187801 150.588085zM330.680886 580.718473l0-376.531656-25.758664-16.829294L304.922223 313.115716l-16.346293-6.757914 0 125.447107-118.966509-52.52733 0-122.19197-11.386328-4.725628 0-221.712591 352.516706 0L510.739798 695.678738 330.680886 580.718473 330.680886 580.718473zM180.515818 355.350632l0-47.564295 40.156582 17.848507 0 48.301076L180.515818 355.350632 180.515818 355.350632zM183.489546 277.054405l0-47.550992 40.157605 17.830087L223.647151 295.657088 183.489546 277.054405 183.489546 277.054405zM224.847489 103.524187 224.847489 151.821169l-40.124859-18.571984 0-47.582715L224.847489 103.524187 224.847489 103.524187zM224.847489 177.138788l0 48.2714-40.124859-18.568914 0-47.579645L224.847489 177.138788 224.847489 177.138788zM230.559585 378.649268l0-47.580668 40.151465 17.839297 0 48.324612L230.559585 378.649268 230.559585 378.649268zM233.546615 300.370437l0-47.606251 40.137139 17.86488 0 48.323589L233.546615 300.370437 233.546615 300.370437zM278.397103 126.549599l0 48.290843L238.239498 156.262318l0-47.584762L278.397103 126.549599 278.397103 126.549599zM278.397103 200.128385l0 48.298006-40.157605-18.568914 0-47.566342L278.397103 200.128385 278.397103 200.128385zM406.971433 191.76081l0 52.696176-55.516408-35.914978 0-51.52142L406.971433 191.76081 406.971433 191.76081zM406.971433 278.832911l0 52.722782-55.516408-35.914978 0-51.53677L406.971433 278.832911 406.971433 278.832911zM406.971433 365.944921 406.971433 418.689193l-55.516408-35.93749 0-51.560306L406.971433 365.944921 406.971433 365.944921zM406.971433 453.033395l0 52.738132-55.516408-35.93749L351.455025 418.300336 406.971433 453.033395 406.971433 453.033395zM406.971433 540.129033l0 52.735062-55.516408-35.931351 0-51.547003L406.971433 540.129033 406.971433 540.129033zM489.232972 243.230042 489.232972 297.724167l-64.423265-41.712007 0-53.082986L489.232972 243.230042 489.232972 243.230042zM489.232972 330.337959l0 54.497195-64.423265-41.708937 0-53.123918L489.232972 330.337959 489.232972 330.337959zM489.232972 417.420293l0 54.510498-64.423265-41.721217 0-53.107545L489.232972 417.420293 489.232972 417.420293zM489.232972 504.519l0 54.510498-64.423265-41.72531 0-53.107545L489.232972 504.519 489.232972 504.519zM489.232972 591.629987l0 54.507428-64.423265-41.708937 0-53.120848L489.232972 591.629987z"  horiz-adv-x="1024" />

    
    <glyph glyph-name="tupian" unicode="&#58884;" d="M515.48928 253.38368l-233.4976 256.096L123.22432 206.6624l0-83.42912 788.6208 0c-100.43776 89.30816-312.25344 280.36992-312.25344 280.36992L515.48928 253.38368zM789.66144 446.12608c43.81056 0 79.29984 36.56192 79.29984 81.73056 0 45.12-35.48928 81.75232-79.29984 81.75232-43.6928 0-79.20384-36.63232-79.20384-81.75232C710.4576 482.688 745.96992 446.12608 789.66144 446.12608zM0 806.4l0-862.31168 1024 0L1024 806.4 0 806.4zM972.58496-1.08416 54.92352-1.08416l-0.04352 749.19808 860.3328 0 0-0.04864 57.37088 0L972.58368-1.08416z"  horiz-adv-x="1024" />

    
    <glyph glyph-name="iconset0401" unicode="&#59160;" d="M512 853.333333C253.866667 853.333333 42.666667 644.266667 42.666667 384s211.2-469.333333 469.333333-469.333333c260.266667 0 469.333333 209.066667 469.333333 469.333333S772.266667 853.333333 512 853.333333zM386.133333 791.466667c-8.533333-10.666667-17.066667-21.333333-25.6-32 0-2.133333-2.133333-2.133333-2.133333-4.266667-17.066667-23.466667-32-51.2-44.8-81.066667 0-2.133333-2.133333-4.266667-2.133333-4.266667 0-2.133333-2.133333-4.266667-2.133333-6.4-25.6 12.8-49.066667 27.733333-70.4 44.8C279.466667 746.666667 330.666667 774.4 386.133333 791.466667zM204.8 680.533333c25.6-21.333333 53.333333-40.533333 87.466667-55.466667 0-2.133333-2.133333-4.266667-2.133333-4.266667-10.666667-32-19.2-68.266667-23.466667-104.533333 0-4.266667-2.133333-8.533333-2.133333-14.933333-2.133333-14.933333-4.266667-27.733333-4.266667-42.666667 0-6.4 0-10.666667-2.133333-17.066667 0-12.8 0-23.466667-2.133333-36.266667L85.333333 405.333333C91.733333 512 136.533333 608 204.8 680.533333zM85.333333 362.666667l170.666667 0c0-12.8 0-25.6 2.133333-36.266667 0-6.4 0-10.666667 2.133333-17.066667 2.133333-14.933333 2.133333-27.733333 4.266667-42.666667 0-4.266667 2.133333-8.533333 2.133333-14.933333 6.4-36.266667 14.933333-72.533333 23.466667-104.533333 0-2.133333 2.133333-4.266667 2.133333-4.266667-32-14.933333-61.866667-34.133333-87.466667-55.466667C136.533333 160 91.733333 256 85.333333 362.666667zM236.8 59.733333c21.333333 17.066667 44.8 32 70.4 44.8 0-2.133333 2.133333-4.266667 2.133333-6.4 0-2.133333 2.133333-4.266667 2.133333-4.266667 12.8-29.866667 27.733333-57.6 44.8-81.066667 0-2.133333 2.133333-2.133333 2.133333-4.266667 8.533333-10.666667 17.066667-21.333333 25.6-32C330.666667-6.4 279.466667 21.333333 236.8 59.733333zM490.666667-40.533333c-59.733333 12.8-110.933333 72.533333-145.066667 160 44.8 17.066667 93.866667 25.6 145.066667 27.733333L490.666667-40.533333zM490.666667 192c-57.6-2.133333-110.933333-12.8-160-29.866667-19.2 59.733333-29.866667 128-32 202.666667l192 0L490.666667 192zM490.666667 405.333333l-192 0c2.133333 74.666667 12.8 142.933333 32 202.666667 49.066667-17.066667 102.4-27.733333 160-29.866667L490.666667 405.333333zM490.666667 618.666667c-53.333333 2.133333-102.4 12.8-145.066667 27.733333 34.133333 89.6 87.466667 149.333333 145.066667 160L490.666667 618.666667zM938.666667 405.333333l-170.666667 0c0 12.8 0 25.6-2.133333 36.266667 0 6.4 0 10.666667-2.133333 17.066667-2.133333 14.933333-2.133333 27.733333-4.266667 42.666667 0 4.266667-2.133333 8.533333-2.133333 14.933333-6.4 36.266667-14.933333 72.533333-23.466667 104.533333 0 2.133333-2.133333 4.266667-2.133333 4.266667 32 14.933333 61.866667 34.133333 87.466667 55.466667C887.466667 608 932.266667 512 938.666667 405.333333zM787.2 708.266667c-21.333333-17.066667-44.8-32-70.4-44.8 0 2.133333-2.133333 4.266667-2.133333 6.4 0 2.133333-2.133333 4.266667-2.133333 4.266667-12.8 29.866667-27.733333 57.6-44.8 81.066667 0 2.133333-2.133333 2.133333-2.133333 4.266667-8.533333 10.666667-17.066667 21.333333-25.6 32C693.333333 774.4 744.533333 746.666667 787.2 708.266667zM533.333333 808.533333c59.733333-12.8 110.933333-72.533333 145.066667-160-44.8-17.066667-93.866667-25.6-145.066667-27.733333L533.333333 808.533333zM533.333333 576c57.6 2.133333 110.933333 12.8 160 29.866667 19.2-59.733333 29.866667-128 32-202.666667l-192 0L533.333333 576zM533.333333 362.666667l192 0c-2.133333-74.666667-12.8-142.933333-32-202.666667-49.066667 17.066667-102.4 27.733333-160 29.866667L533.333333 362.666667zM533.333333-40.533333 533.333333 149.333333c53.333333-2.133333 102.4-12.8 145.066667-27.733333C644.266667 32 593.066667-27.733333 533.333333-40.533333zM637.866667-23.466667c8.533333 10.666667 17.066667 21.333333 25.6 32 0 2.133333 2.133333 2.133333 2.133333 4.266667 17.066667 23.466667 32 51.2 44.8 81.066667 0 2.133333 2.133333 4.266667 2.133333 4.266667 0 2.133333 2.133333 4.266667 2.133333 6.4 25.6-12.8 49.066667-27.733333 70.4-44.8C744.533333 21.333333 693.333333-6.4 637.866667-23.466667zM819.2 87.466667c-25.6 21.333333-53.333333 40.533333-87.466667 55.466667 0 2.133333 2.133333 4.266667 2.133333 4.266667 10.666667 32 19.2 68.266667 23.466667 104.533333 0 4.266667 2.133333 8.533333 2.133333 14.933333 2.133333 14.933333 4.266667 27.733333 4.266667 42.666667 0 6.4 0 10.666667 2.133333 17.066667 0 12.8 0 23.466667 2.133333 36.266667l170.666667 0C932.266667 256 887.466667 160 819.2 87.466667z"  horiz-adv-x="1024" />

    
    <glyph glyph-name="gongyu" unicode="&#59026;" d="M538.9 410.4 477.6 411.1 477.6 358.8 538.9 358.5ZM413 410.4 351.6 411.1 351.6 358.7 413 358.5ZM351.7 254.8 413 254.6 413 306.5 351.7 307.1ZM661.8 410.4 600.5 411.1 600.5 358.8 661.8 358.5ZM539 512.9 477.6 513.6 477.6 461.3 539 461ZM477.6 180.7 539 180.3 539 307.1 477.6 307.1ZM512 880c-273.5 0-496-222.5-496-496s222.5-496 496-496 496 222.5 496 496S785.5 880 512 880zM272.7 134.3l-0.5 38L310 172.3l-0.9 266.5L288 439.2c-12.1 0.3-14.5 6.7-5.2 14.4L497.1 631c4.8 3.9 12.4 4.1 17.2 0.5l226.3-171.3c9.5-7.2 7.5-13.1-4.7-13.1l-21 0-0.5-274.4 36.9-1 0.4-37.8L272.7 134.3zM600.5 254.8 661.9 254.6 661.9 306.5 600.5 307.1Z"  horiz-adv-x="1024" />

    
    <glyph glyph-name="fanhui" unicode="&#58915;" d="M365.376939 379.892551 781.417191 795.932802c22.927296 22.898672 22.927296 60.023145 0 82.893194-22.870049 22.898672-59.994521 22.898672-82.893194 0L242.525563 422.856184c-22.870049-22.870049-22.870049-59.994521 0-82.893194 1.80327-1.80327 3.864151-3.234437 5.839161-4.751474 0.34348-0.372103 0.60109-0.801454 0.94457-1.173557L694.6026-111.255346c22.354829-22.354829 58.591978-22.354829 80.946806 0s22.354829 58.591978 0 80.946806L365.376939 379.892551z"  horiz-adv-x="1024" />

    
    <glyph glyph-name="webicon18" unicode="&#59004;" d="M781.248 717.248C768.768 729.76 752.384 736 736 736L288 736C271.616 736 255.232 729.76 242.752 717.248 230.24 704.768 224 688.384 224 672l0-64 32 0L256 672c0 8.192 3.136 16.384 9.376 22.624C271.616 700.864 279.808 704 288 704l448 0c8.192 0 16.384-3.136 22.624-9.376C764.864 688.384 768 680.192 768 672l0-576c0-8.192-3.136-16.384-9.376-22.624S744.192 64 736 64L288 64c-8.192 0-16.384 3.136-22.624 9.376S256 87.808 256 96l0 96L224 192l0-96c0-16.384 6.24-32.768 18.752-45.248C255.232 38.24 271.616 32 288 32l448 0c16.384 0 32.768 6.24 45.248 18.752C793.76 63.232 800 79.616 800 96L800 672C800 688.384 793.76 704.768 781.248 717.248zM224 512l32 0c8.832 0 16 7.168 16 16S264.832 544 256 544L224 544c-8.832 0-16-7.168-16-16S215.168 512 224 512zM224 384l32 0c8.832 0 16 7.168 16 16S264.832 416 256 416L224 416c-8.832 0-16-7.168-16-16S215.168 384 224 384zM256 256c8.832 0 16 7.168 16 16S264.832 288 256 288L224 288c-8.832 0-16-7.168-16-16S215.168 256 224 256L256 256zM626.496 310.784c-5.824-6.656-5.152-16.768 1.472-22.592 38.144-33.44 60.032-81.696 60.032-132.384 0-8.832 7.168-16 16-16s16 7.168 16 16c0 59.904-25.856 116.896-70.912 156.448C642.4 318.048 632.32 317.408 626.496 310.784zM304 155.808c0-8.832 7.168-16 16-16s16 7.168 16 16c0 75.904 49.792 143.616 121.536 167.04 16.768-7.072 35.168-11.008 54.464-11.008 77.664 0 140.8 63.168 140.8 140.8 0 77.632-63.168 140.768-140.8 140.768-77.632 0-140.8-63.168-140.8-140.768 0-44 20.704-82.88 52.416-108.736C351.904 310.08 304 236.8 304 155.808zM403.2 452.672c0 59.968 48.8 108.768 108.8 108.768 60 0 108.8-48.8 108.8-108.768 0-60-48.8-108.8-108.8-108.8C452 343.84 403.2 392.672 403.2 452.672z"  horiz-adv-x="1024" />

    
    <glyph glyph-name="laba" unicode="&#59135;" d="M914.913211 827.894879c0 39.688931-36.334533-4.41045-36.334533-4.410449-171.746596-246.898203-526.251585-227.064482-526.251586-227.064483-41.830711 0-35.227316-33.06507-35.227316-33.06507v-286.584064c0-33.060977 37.434587-33.060977 37.434588-33.060976 396.342864 0 531.415189-231.859695 531.415188-231.859695s31.16786-36.000935 28.961612 1.481747l0.002047 814.56299zM244.434803 596.419947H107.921663S0.025281 592.013591 0.025281 492.808148v-136.679939s-2.197038-114.635877 103.492072-114.635877c0 0 37.430494-22.044062 37.430494-63.933101v-246.898203s-6.606465-39.678698 35.230386-39.678698h66.054415s39.634696 8.820899 39.634696 37.471426c0 0-4.403287 136.679939-30.824029 136.679939 0 0 63.854307 72.746838-6.610558 105.822141 0 0 35.234479 46.292326 35.234479 72.754001l2.200108 315.234591c0.001023 0.001023 6.608511 37.47552-37.432541 37.475519zM986.47506 878.603795c-19.459191 0-35.234479-15.791661-35.234479-35.275412v-846.531076c0-19.479657 15.774265-35.278481 35.234479-35.278481s35.227316 15.798824 35.227316 35.278481V843.328383c0 19.48375-15.768125 35.275411-35.227316 35.275412z"  horiz-adv-x="1024" />

    
    <glyph glyph-name="fa-headphones" unicode="&#58880;" d="M637.521 470.063c0.652 30.836 26.205 55.296 57.041 54.621s55.296-26.205 54.644-57.065c-0.652-30.371-25.46-54.644-55.831-54.644-31.185 0.372-56.18 25.903-55.855 57.088zM296.692 470.063c0.605 30.906 26.159 55.459 57.065 54.854 30.906-0.605 55.459-26.159 54.854-57.065-0.605-30.534-25.553-54.924-56.064-54.877-31.162 0.372-56.18 25.903-55.855 57.088zM694.912 295.098c-0.186 18.176 14.406 33.094 32.582 33.28h57.693c18.385-0.047 33.257-15.011 33.187-33.373-0.070-18.316-14.895-33.14-33.187-33.187l-27.276 0c-15.453-108.102-106.519-180.899-232.006-180.899s-216.436 72.82-232.006 180.899h-28.742c-18.385 0.047-33.233 15.011-33.187 33.396 0.070 18.292 14.895 33.117 33.187 33.164h59.043c18.176-0.186 32.768-15.081 32.582-33.28 0-102.004 84.899-147.665 169.030-147.665 84.201 0 169.1 45.661 169.1 147.665zM513.547-128c-268.614 3.398-483.607 223.884-480.233 492.497 3.305 262.377 214.132 474.81 476.463 480.163 3.607 1.722 10.263 5.655 15.313 8.681 21.83 14.429 46.010 24.972 71.401 31.139 17.734 3.235 34.676-8.495 37.911-26.182 0.047-0.186 0.093-0.349 0.116-0.535 3.398-17.92-8.285-35.188-26.182-38.726-17.943-5.027-34.956-12.87-50.409-23.273-12.94-9.798-28.253-15.919-44.381-17.711-231.843 4.375-423.331-180.015-427.729-411.857-4.375-231.843 180.015-423.331 411.857-427.729 231.843-4.375 423.331 180.015 427.729 411.834 0.047 2.653 0.070 5.306 0.070 7.959 0.279 105.612-38.982 207.523-110.033 285.649-4.375 4.817-16.826 18.385-58.415 152.809-100.236-108.335-128.721-92.649-143.313-84.643-15.919 8.937-21.783 28.951-13.172 45.079 6.307 12.102 19.549 18.967 33.094 17.199 42.193 31.721 80.128 68.701 112.966 110.033 7.68 9.146 19.805 13.289 31.511 10.822 11.729-2.607 21.108-11.427 24.483-22.97 17.245-62.883 38.121-124.719 62.441-185.204 81.408-90.112 126.231-207.36 125.673-328.774 2.164-265.891-211.247-483.398-477.161-486.26z"  horiz-adv-x="1024" />

    
    <glyph glyph-name="jinggao" unicode="&#58948;" d="M512 384m-426.666667 0a426.666667 426.666667 0 1 1 853.333334 0 426.666667 426.666667 0 1 1-853.333334 0ZM512-128C230.4-128 0 102.4 0 384S230.4 896 512 896s512-230.4 512-512-230.4-512-512-512zM452.266667 699.733333l17.066666-435.2h81.066667l21.333333 435.2h-119.466666zM512 200.533333c-21.333333 0-38.4-8.533333-55.466667-21.333333s-21.333333-34.133333-21.333333-55.466667 8.533333-42.666667 21.333333-55.466666c12.8-17.066667 34.133333-25.6 55.466667-25.6s42.666667 8.533333 55.466667 21.333333c12.8 12.8 21.333333 34.133333 21.333333 55.466667s-8.533333 42.666667-21.333333 55.466666c-12.8 17.066667-34.133333 25.6-55.466667 25.6z"  horiz-adv-x="1024" />

    
    <glyph glyph-name="duigou" unicode="&#59052;" d="M511.745-60.957c-245.994 0-445.39 199.423-445.39 445.39 0 245.994 199.396 445.39 445.39 445.39s445.39-199.423 445.39-445.39-199.423-445.39-445.39-445.39z m0 835.106c-215.235 0-389.716-174.482-389.716-389.716s174.482-389.716 389.716-389.716 389.716 174.482 389.716 389.716-174.508 389.716-389.716 389.716z m-47.044-544.796c-0.919-1.308-1.476-2.811-2.645-4.008-5.484-5.484-12.721-8.017-19.903-7.823-7.182-0.166-14.42 2.339-19.875 7.823-1.17 1.169-1.727 2.673-2.644 3.981l-136.568 136.54c-10.606 10.633-10.606 27.837 0 38.442 10.633 10.606 27.837 10.606 38.443 0l120.616-120.645 259.802 259.829c10.606 10.606 27.837 10.606 38.443 0 10.633-10.605 10.633-27.837 0-38.442L464.701 229.353z"  horiz-adv-x="1024" />

    
    <glyph glyph-name="dingwei" unicode="&#58886;" d="M532.608-118.784H508.16l-6.848 9.856C490.496-93.376 237.376 273.6 201.6 355.52c-36.288 83.456-42.752 108.928-42.752 170.368 0 199.04 161.984 360.96 361.024 360.96 200 0 361.92-161.92 361.92-360.96 0-61.44-6.336-86.848-42.752-170.368-35.776-81.92-288.832-448.832-299.584-464.448l-6.848-9.856zM520.832 841.088c-174.72 0-316.16-141.376-316.16-315.2 0-55.04 4.736-73.536 38.976-152.064 28.48-65.6 216.512-341.76 276.736-429.76 60.288 88 248.256 364.16 276.736 429.76 34.176 78.592 38.912 97.024 38.912 152.064a315.52 315.52 0 0 1-315.2 315.2zM520.32 305.344c-105.088 0-190.592 85.504-190.592 190.592s85.504 190.656 190.592 190.656c105.152 0 190.656-85.504 190.656-190.592S625.408 305.344 520.32 305.344z m0 330.048A139.52 139.52 0 0 1 380.928 496c0-76.864 62.528-139.392 139.392-139.392S659.712 419.136 659.712 496A139.52 139.52 0 0 1 520.32 635.392z"  horiz-adv-x="1024" />

    
    <glyph glyph-name="fabulous" unicode="&#58885;" d="M729.074-65.13099999999997H414.096c-20.687 0-37.453 17.069-37.453 38.104 0 21.064 16.738 38.104 37.453 38.104h314.978c2.272 0 5.651 0.496 9.22 2.921 3.382 2.317 5.112 5.432 5.816 7.61l135.962 314.645c8.655 19.658 6.79 42.115-4.676 60.064-11.52 17.963-30.962 28.688-52.001 28.688l-197.779 0.054c-16.577 0-31.045 10.988-35.803 27.103-4.651 16.089 1.46 33.46 15.25 42.695 32.126 21.588 63.331 140.283 37.642 219.083-14.44 44.582-37.642 43.259-47.674 42.694l-10.95-0.096c-14.658 0-28.449-5.805-38.888-16.364-10.33-10.588-16.008-24.65-16.008-39.648v-51.972c0-60.561-23.23-117.509-65.197-160.286-37.182-37.994-85.288-60.836-137.045-65.496v-413.845c0-19.8-7.517-38.326-21.255-52.277-13.765-14.035-32.07-21.782-51.325-21.782h-120.66c-18.686 0-36.236 7.444-49.324 20.871-13.169 13.426-20.335 31.294-20.335 50.208V420.18c0 20.72 7.896 40.337 22.31 55.02 14.52 14.71 33.64 22.76 54.029 22.76h166.494c39.48 0 76.472 15.701 104.434 44.128 27.745 28.454 43.186 66.228 43.186 106.467v51.972c0 35.388 13.439 68.585 37.966 93.453 24.58 24.995 57.056 38.738 91.67 38.738h8.76c55.544 3.226 100-31.197 120.77-94.776 21.47-66.186 15.44-166.008-15.199-236.77h124.957c46.377-0.082 89.265-23.711 114.52-63.29 25.34-39.649 29.314-89.111 10.6-132.288l-135.314-313.24c-6.166-15.91-17.632-30.632-32.83-41.302-15.304-10.612-33.043-16.183-51.323-16.183z m-590.34 76.18h113.464V421.877H140.383l-1.65-410.828z"  horiz-adv-x="1024" />

    
    <glyph glyph-name="-xingji-" unicode="&#59107;" d="M164.192 283.768l-52.824 31.84-52.832-31.84a8.568 8.568 0 0 0-9.608 0.528 9.552 9.552 0 0 0-3.464 9.456l12.616 62.28-45.272 42.632c-2.592 2.456-4.072 6.256-3 9.712 1.088 3.48 4.512 5.944 7.992 6.328l60.632 6.728 24.864 58.12c1.416 3.344 4.576 5.92 8.08 5.92 3.488 0 6.656-2.576 8.072-5.92l24.856-58.12 60.632-6.728c3.48-0.384 5.776-2.848 6.856-6.328 1.08-3.456 0.72-7.264-1.864-9.712l-45.272-42.632 12.624-62.28c0.72-3.56-0.632-7.296-3.464-9.44a8.512 8.512 0 0 0-9.624-0.544zM367.112 283.768l-52.832 31.84-52.84-31.84a8.568 8.568 0 0 0-9.608 0.528 9.536 9.536 0 0 0-3.464 9.456l12.608 62.28-45.264 42.632c-2.592 2.456-4.072 6.256-3 9.712 1.088 3.48 4.512 5.944 7.992 6.328l60.624 6.728 24.864 58.12c1.416 3.344 4.576 5.92 8.072 5.92 3.488 0 6.656-2.576 8.08-5.92l24.856-58.12 60.624-6.728c3.48-0.384 5.784-2.848 6.864-6.328 1.08-3.456 0.72-7.264-1.872-9.712l-45.272-42.632 12.624-62.28c0.72-3.56-0.64-7.296-3.464-9.44a8.44 8.44 0 0 0-9.592-0.544zM570.016 283.768l-52.832 31.84-52.832-31.84a8.584 8.584 0 0 0-9.616 0.528 9.552 9.552 0 0 0-3.464 9.456l12.624 62.28-45.264 42.632c-2.6 2.456-4.072 6.256-3 9.712 1.088 3.48 4.52 5.944 7.992 6.328l60.624 6.728 24.864 58.12c1.432 3.344 4.584 5.92 8.072 5.92 3.488 0 6.672-2.576 8.08-5.92l24.856-58.12 60.616-6.728c3.48-0.384 5.776-2.848 6.856-6.328 1.088-3.456 0.728-7.264-1.856-9.712l-45.272-42.632 12.624-62.28c0.72-3.56-0.64-7.296-3.464-9.44a8.504 8.504 0 0 0-9.608-0.544zM720.088 477.376a2.56 2.56 0 0 0 0.728-0.976l24.848-58.12 1.832-4.296 4.64-0.512 60.296-6.544c0.056-0.064 0.24-0.344 0.44-0.976 0.28-0.896 0.2-1.48 0.272-1.48h0.008l-45.264-42.64-3.24-3.048 0.88-4.36 12.624-62.256c0.128-0.632-0.136-1.256-0.456-1.504l-0.624-0.048-0.024-0.024-52.832 31.84-4.136 2.496-4.136-2.496-53.12-31.92a0.672 0.672 0 0 0-0.376 0.136c-0.312 0.24-0.568 0.888-0.456 1.496l12.624 62.28 0.88 4.36-3.24 3.048-45.24 42.616a2.816 2.816 0 0 0-0.872 1.512c0.08 0.224 0.664 0.712 1.248 0.776l60.624 6.736 4.64 0.512 1.832 4.296 24.88 58.16a2.456 2.456 0 0 0 0.72 0.936m0.008 8.096c-3.504 0-6.672-2.576-8.08-5.92l-24.856-58.12-60.624-6.728c-3.496-0.384-6.904-2.848-8-6.328-1.08-3.456 0.416-7.256 3-9.712l45.264-42.632-12.624-62.28a9.6 9.6 0 0 1 3.472-9.456 8.624 8.624 0 0 1 9.616-0.536l52.832 31.84 52.832-31.84a8.48 8.48 0 0 1 9.608 0.552c2.832 2.144 4.176 5.872 3.472 9.44l-12.624 62.28 45.264 42.632c2.592 2.448 2.952 6.256 1.856 9.712-1.064 3.48-3.36 5.944-6.856 6.328l-60.616 6.728-24.848 58.12c-1.448 3.344-4.608 5.92-8.088 5.92zM923 477.376a2.656 2.656 0 0 0 0.728-0.976l24.848-58.12 1.832-4.296 4.64-0.512 60.288-6.544a2.976 2.976 0 0 0 0.464-0.944c0.272-0.912 0.192-1.504 0.264-1.504h0.016l-45.28-42.64-3.232-3.048 0.872-4.36 12.632-62.296a1.6 1.6 0 0 0-0.472-1.48l-0.624-0.048-0.016-0.016-52.832 31.832-4.136 2.504-4.136-2.504-53.128-31.92c-0.136 0-0.248 0.064-0.384 0.152-0.312 0.24-0.552 0.848-0.44 1.496l12.616 62.28 0.872 4.36-3.232 3.048-45.256 42.624a2.736 2.736 0 0 0-0.864 1.504c0.096 0.224 0.68 0.704 1.248 0.768l60.624 6.728 4.64 0.512 1.832 4.296 24.864 58.136a3.12 3.12 0 0 0 0.752 0.968m0.008 8.096c-3.504 0-6.664-2.576-8.088-5.92l-24.856-58.12-60.624-6.728c-3.488-0.384-6.904-2.848-8-6.328-1.064-3.456 0.408-7.256 3-9.712l45.272-42.632-12.616-62.28c-0.72-3.56 0.624-7.312 3.472-9.456 1.544-1.168 3.376-1.768 5.2-1.768 1.504 0 3.032 0.416 4.408 1.232l52.832 31.832 52.832-31.832a8.432 8.432 0 0 1 9.608 0.552c2.824 2.144 4.184 5.872 3.472 9.44l-12.624 62.28 45.28 42.632c2.576 2.448 2.936 6.256 1.856 9.712-1.104 3.48-3.392 5.944-6.872 6.328l-60.616 6.728-24.848 58.12c-1.44 3.336-4.608 5.92-8.088 5.92z"  horiz-adv-x="1024" />

    
    <glyph glyph-name="jiantoushang" unicode="&#58926;" d="M910.222222 99.555556c-17.066667 0-34.133333 5.688889-45.511111 17.066666L551.822222 486.4c-11.377778 5.688889-17.066667 11.377778-34.133333 11.377778-5.688889 0-22.755556-5.688889-28.444445-11.377778l-329.955555-364.088889c-22.755556-22.755556-56.888889-22.755556-79.644445-5.688889-22.755556 22.755556-22.755556 56.888889-5.688888 79.644445l329.955555 364.088889c28.444444 34.133333 73.955556 51.2 119.466667 51.2s85.333333-22.755556 119.466666-56.888889l312.888889-364.088889c22.755556-22.755556 17.066667-56.888889-5.688889-79.644445-11.377778-5.688889-28.444444-11.377778-39.822222-11.377777z"  horiz-adv-x="1024" />

    
    <glyph glyph-name="jiantouyou" unicode="&#58925;" d="M312.888889-99.555556c-17.066667 0-28.444444 5.688889-39.822222 17.066667-22.755556 22.755556-17.066667 56.888889 5.688889 79.644445l364.088888 329.955555c11.377778 11.377778 17.066667 22.755556 17.066667 34.133333 0 11.377778-5.688889 22.755556-17.066667 34.133334L273.066667 708.266667c-22.755556 22.755556-28.444444 56.888889-5.688889 79.644444 22.755556 22.755556 56.888889 28.444444 79.644444 5.688889l364.088889-312.888889c34.133333-28.444444 56.888889-73.955556 56.888889-119.466667s-17.066667-85.333333-51.2-119.466666l-364.088889-329.955556c-11.377778-5.688889-28.444444-11.377778-39.822222-11.377778z"  horiz-adv-x="1024" />

    
    <glyph glyph-name="jiantouxia" unicode="&#58927;" d="M517.688889 99.555556c-45.511111 0-85.333333 17.066667-119.466667 51.2L73.955556 514.844444c-22.755556 22.755556-17.066667 56.888889 5.688888 79.644445 22.755556 22.755556 56.888889 17.066667 79.644445-5.688889l329.955555-364.088889c5.688889-5.688889 17.066667-11.377778 28.444445-11.377778s22.755556 5.688889 34.133333 17.066667l312.888889 364.088889c22.755556 22.755556 56.888889 28.444444 79.644445 5.688889 22.755556-22.755556 28.444444-56.888889 5.688888-79.644445L637.155556 156.444444c-28.444444-39.822222-68.266667-56.888889-119.466667-56.888888 5.688889 0 0 0 0 0z"  horiz-adv-x="1024" />

    
    <glyph glyph-name="-xingji-1" unicode="&#58916;" d="M164.192 283.768l-52.824 31.84-52.832-31.84a8.568 8.568 0 0 0-9.608 0.528 9.552 9.552 0 0 0-3.464 9.456l12.616 62.28-45.272 42.632c-2.592 2.456-4.072 6.256-3 9.712 1.088 3.48 4.512 5.944 7.992 6.328l60.632 6.728 24.864 58.12c1.416 3.344 4.576 5.92 8.08 5.92 3.488 0 6.656-2.576 8.072-5.92l24.856-58.12 60.632-6.728c3.48-0.384 5.776-2.848 6.856-6.328 1.08-3.456 0.72-7.264-1.864-9.712l-45.272-42.632 12.624-62.28c0.72-3.56-0.632-7.296-3.464-9.44a8.512 8.512 0 0 0-9.624-0.544zM367.112 283.768l-52.832 31.84-52.84-31.84a8.568 8.568 0 0 0-9.608 0.528 9.536 9.536 0 0 0-3.464 9.456l12.608 62.28-45.264 42.632c-2.592 2.456-4.072 6.256-3 9.712 1.088 3.48 4.512 5.944 7.992 6.328l60.624 6.728 24.864 58.12c1.416 3.344 4.576 5.92 8.072 5.92 3.488 0 6.656-2.576 8.08-5.92l24.856-58.12 60.624-6.728c3.48-0.384 5.784-2.848 6.864-6.328 1.08-3.456 0.72-7.264-1.872-9.712l-45.272-42.632 12.624-62.28c0.72-3.56-0.64-7.296-3.464-9.44a8.44 8.44 0 0 0-9.592-0.544zM570.016 283.768l-52.832 31.84-52.832-31.84a8.584 8.584 0 0 0-9.616 0.528 9.552 9.552 0 0 0-3.464 9.456l12.624 62.28-45.264 42.632c-2.6 2.456-4.072 6.256-3 9.712 1.088 3.48 4.52 5.944 7.992 6.328l60.624 6.728 24.864 58.12c1.432 3.344 4.584 5.92 8.08 5.92 3.48 0 6.664-2.576 8.072-5.92l24.856-58.12 60.624-6.728c3.48-0.384 5.776-2.848 6.856-6.328 1.088-3.456 0.728-7.264-1.856-9.712l-45.28-42.632 12.624-62.28c0.728-3.56-0.632-7.296-3.456-9.44a8.528 8.528 0 0 0-9.616-0.544zM772.92 283.768l-52.832 31.84-52.832-31.84c-3.04-1.816-6.784-1.592-9.616 0.528a9.568 9.568 0 0 0-3.464 9.456l12.616 62.28-45.264 42.632c-2.584 2.456-4.072 6.256-3 9.712 1.096 3.48 4.512 5.944 8 6.328l60.624 6.728 24.864 58.12c1.408 3.344 4.568 5.92 8.072 5.92 3.488 0 6.648-2.576 8.08-5.92l24.856-58.12 60.616-6.728c3.496-0.384 5.8-2.848 6.864-6.328 1.088-3.456 0.728-7.264-1.864-9.712l-45.264-42.632 12.624-62.28c0.712-3.56-0.64-7.296-3.464-9.44a8.504 8.504 0 0 0-9.616-0.544zM975.832 283.768l-52.832 31.84-52.84-31.84a8.568 8.568 0 0 0-9.608 0.528 9.568 9.568 0 0 0-3.464 9.456l12.616 62.28-45.272 42.632c-2.592 2.456-4.064 6.256-3 9.712 1.088 3.48 4.512 5.944 8 6.328l60.624 6.728 24.856 58.12c1.424 3.344 4.576 5.92 8.088 5.92 3.48 0 6.648-2.576 8.08-5.92l24.848-58.12 60.624-6.728c3.488-0.384 5.776-2.848 6.864-6.328 1.08-3.456 0.72-7.264-1.856-9.712l-45.28-42.632 12.624-62.28c0.728-3.56-0.648-7.296-3.464-9.44a8.52 8.52 0 0 0-9.608-0.544z"  horiz-adv-x="1024" />

    
    <glyph glyph-name="-xingji-2" unicode="&#58917;" d="M164.192 283.768l-52.824 31.84-52.832-31.84a8.568 8.568 0 0 0-9.608 0.528 9.552 9.552 0 0 0-3.464 9.456l12.616 62.28-45.272 42.632c-2.592 2.456-4.072 6.256-3 9.712 1.088 3.48 4.512 5.944 7.992 6.328l60.632 6.728 24.864 58.12c1.416 3.344 4.576 5.92 8.08 5.92 3.488 0 6.656-2.576 8.072-5.92l24.856-58.12 60.632-6.728c3.48-0.384 5.776-2.848 6.856-6.328 1.08-3.456 0.72-7.264-1.864-9.712l-45.272-42.632 12.624-62.28c0.72-3.56-0.632-7.296-3.464-9.44a8.512 8.512 0 0 0-9.624-0.544zM367.112 283.768l-52.832 31.84-52.84-31.84a8.568 8.568 0 0 0-9.608 0.528 9.536 9.536 0 0 0-3.464 9.456l12.608 62.28-45.264 42.632c-2.592 2.456-4.072 6.256-3 9.712 1.088 3.48 4.512 5.944 7.992 6.328l60.624 6.728 24.864 58.12c1.416 3.344 4.576 5.92 8.072 5.92 3.488 0 6.656-2.576 8.08-5.92l24.856-58.12 60.624-6.728c3.48-0.384 5.784-2.848 6.864-6.328 1.08-3.456 0.72-7.264-1.872-9.712l-45.272-42.632 12.624-62.28c0.72-3.56-0.64-7.296-3.464-9.44a8.44 8.44 0 0 0-9.592-0.544zM570.016 283.768l-52.832 31.84-52.832-31.84a8.584 8.584 0 0 0-9.616 0.528 9.552 9.552 0 0 0-3.464 9.456l12.624 62.28-45.264 42.632c-2.6 2.456-4.072 6.256-3 9.712 1.088 3.48 4.52 5.944 7.992 6.328l60.624 6.728 24.864 58.12c1.432 3.344 4.584 5.92 8.08 5.92 3.48 0 6.664-2.576 8.072-5.92l24.856-58.12 60.624-6.728c3.48-0.384 5.776-2.848 6.856-6.328 1.088-3.456 0.728-7.264-1.856-9.712l-45.28-42.632 12.624-62.28c0.728-3.56-0.632-7.296-3.456-9.44a8.528 8.528 0 0 0-9.616-0.544zM772.92 283.768l-52.832 31.84-52.832-31.84c-3.04-1.816-6.784-1.592-9.616 0.528a9.568 9.568 0 0 0-3.464 9.456l12.616 62.28-45.264 42.632c-2.584 2.456-4.072 6.256-3 9.712 1.096 3.48 4.512 5.944 8 6.328l60.624 6.728 24.864 58.12c1.408 3.344 4.568 5.92 8.072 5.92 3.488 0 6.648-2.576 8.08-5.92l24.856-58.12 60.616-6.728c3.496-0.384 5.8-2.848 6.864-6.328 1.088-3.456 0.728-7.264-1.864-9.712l-45.264-42.632 12.624-62.28c0.712-3.56-0.64-7.296-3.464-9.44a8.504 8.504 0 0 0-9.616-0.544zM923 477.376a2.656 2.656 0 0 0 0.728-0.976l24.848-58.12 1.832-4.296 4.64-0.512 60.288-6.544a2.864 2.864 0 0 0 0.456-0.944c0.28-0.912 0.2-1.504 0.272-1.504h0.016l-45.28-42.632-3.24-3.056 0.88-4.36 12.632-62.296a1.584 1.584 0 0 0-0.472-1.472l-0.624-0.048-0.016-0.016-52.832 31.84-4.136 2.496-4.136-2.496-53.12-31.92a0.672 0.672 0 0 0-0.384 0.144c-0.312 0.24-0.56 0.856-0.44 1.488l12.616 62.28 0.88 4.36-3.24 3.048-45.256 42.624a2.736 2.736 0 0 0-0.864 1.504c0.096 0.224 0.68 0.704 1.248 0.768l60.624 6.728 4.64 0.512 1.832 4.296 24.864 58.136a2.8 2.8 0 0 0 0.744 0.968m0.008 8.096c-3.504 0-6.664-2.576-8.088-5.92l-24.856-58.12-60.624-6.728c-3.488-0.384-6.912-2.848-8-6.328-1.064-3.456 0.408-7.256 3-9.712l45.272-42.632-12.616-62.28c-0.72-3.56 0.624-7.312 3.464-9.456 1.544-1.168 3.376-1.76 5.2-1.76 1.512 0 3.04 0.408 4.408 1.224l52.84 31.84 52.832-31.84a8.448 8.448 0 0 1 9.616 0.552c2.816 2.144 4.184 5.872 3.464 9.44l-12.624 62.28 45.28 42.632c2.576 2.448 2.936 6.256 1.856 9.712-1.096 3.48-3.384 5.944-6.864 6.328l-60.624 6.728-24.848 58.12c-1.44 3.336-4.608 5.92-8.088 5.92z"  horiz-adv-x="1024" />

    
    <glyph glyph-name="-xingji-3" unicode="&#58918;" d="M164.192 283.768l-52.824 31.84-52.832-31.84a8.568 8.568 0 0 0-9.608 0.528 9.552 9.552 0 0 0-3.464 9.456l12.616 62.28-45.272 42.632c-2.592 2.456-4.072 6.256-3 9.712 1.088 3.48 4.512 5.944 7.992 6.328l60.632 6.728 24.864 58.12c1.416 3.344 4.576 5.92 8.08 5.92 3.488 0 6.656-2.576 8.072-5.92l24.856-58.12 60.632-6.728c3.48-0.384 5.776-2.848 6.856-6.328 1.08-3.456 0.72-7.264-1.864-9.712l-45.272-42.632 12.624-62.28c0.72-3.56-0.632-7.296-3.464-9.44a8.512 8.512 0 0 0-9.624-0.544zM367.112 283.768l-52.832 31.84-52.84-31.84a8.568 8.568 0 0 0-9.608 0.528 9.536 9.536 0 0 0-3.464 9.456l12.608 62.28-45.264 42.632c-2.592 2.456-4.072 6.256-3 9.712 1.088 3.48 4.512 5.944 7.992 6.328l60.624 6.728 24.864 58.12c1.416 3.344 4.576 5.92 8.072 5.92 3.488 0 6.656-2.576 8.08-5.92l24.856-58.12 60.624-6.728c3.48-0.384 5.784-2.848 6.864-6.328 1.08-3.456 0.72-7.264-1.872-9.712l-45.272-42.632 12.624-62.28c0.72-3.56-0.64-7.296-3.464-9.44a8.44 8.44 0 0 0-9.592-0.544zM517.192 477.376a2.6 2.6 0 0 0 0.72-0.976l24.856-58.12 1.832-4.296 4.64-0.512 60.28-6.552a3.08 3.08 0 0 0 0.44-0.96c0.288-0.904 0.208-1.496 0.272-1.496h0.016l-45.264-42.64-3.24-3.048 0.88-4.36 12.624-62.28a1.592 1.592 0 0 0-0.456-1.48l-0.616-0.04-0.032-0.032-52.832 31.84-4.136 2.496-4.128-2.496-53.12-31.92a0.656 0.656 0 0 0-0.384 0.144c-0.32 0.24-0.568 0.856-0.448 1.488l12.624 62.28 0.88 4.36-3.24 3.048-45.256 42.632a2.64 2.64 0 0 0-0.856 1.504c0.088 0.224 0.672 0.704 1.24 0.768l60.624 6.736 4.64 0.512 1.832 4.288 24.864 58.12a2.688 2.688 0 0 0 0.744 0.992m-0.008 8.096c-3.496 0-6.648-2.576-8.072-5.92l-24.864-58.12-60.624-6.728c-3.472-0.384-6.904-2.848-7.992-6.328-1.072-3.456 0.4-7.256 3-9.712l45.264-42.632-12.624-62.28c-0.72-3.56 0.632-7.312 3.464-9.456a8.624 8.624 0 0 1 9.616-0.536l52.832 31.84 52.832-31.84a8.504 8.504 0 0 1 9.608 0.552c2.832 2.144 4.184 5.872 3.472 9.44l-12.624 62.28 45.264 42.632c2.584 2.448 2.944 6.256 1.856 9.712-1.08 3.48-3.376 5.944-6.856 6.328l-60.608 6.728-24.856 58.12c-1.416 3.344-4.6 5.92-8.088 5.92zM720.096 477.376a2.64 2.64 0 0 0 0.72-0.976l24.848-58.12 1.832-4.296 4.64-0.512 60.296-6.544a3.656 3.656 0 0 0 0.44-0.976c0.28-0.896 0.192-1.48 0.264-1.48h0.016l-45.264-42.648-3.24-3.048 0.88-4.36 12.624-62.248c0.128-0.64-0.144-1.264-0.464-1.504l-0.624-0.048-0.024-0.024-52.832 31.84-4.144 2.496-4.136-2.496-53.12-31.92a0.6 0.6 0 0 0-0.376 0.136c-0.312 0.24-0.576 0.88-0.464 1.496l12.624 62.28 0.88 4.36-3.24 3.048-45.24 42.624a2.88 2.88 0 0 0-0.872 1.512c0.08 0.224 0.672 0.712 1.248 0.776l60.624 6.736 4.64 0.512 1.832 4.296 24.88 58.16a2.592 2.592 0 0 0 0.752 0.928m0 8.096c-3.504 0-6.672-2.576-8.08-5.92l-24.856-58.12-60.624-6.728c-3.496-0.384-6.896-2.848-8-6.328-1.08-3.456 0.424-7.256 3-9.712l45.264-42.632-12.624-62.28c-0.704-3.56 0.64-7.312 3.48-9.456 1.536-1.168 3.376-1.768 5.192-1.768 1.512 0 3.048 0.416 4.424 1.232l52.832 31.832 52.832-31.832a8.456 8.456 0 0 1 9.6 0.552c2.832 2.144 4.176 5.872 3.48 9.44l-12.624 62.28 45.264 42.632c2.584 2.448 2.952 6.256 1.848 9.712-1.064 3.48-3.36 5.944-6.848 6.328l-60.616 6.728-24.84 58.12c-1.464 3.344-4.624 5.92-8.104 5.92zM923 477.376a2.656 2.656 0 0 0 0.728-0.976l24.848-58.12 1.832-4.296 4.64-0.512 60.288-6.544a2.976 2.976 0 0 0 0.464-0.944c0.272-0.912 0.192-1.504 0.264-1.504h0.016l-45.28-42.64-3.232-3.048 0.872-4.36 12.632-62.296a1.624 1.624 0 0 0-0.472-1.488l-0.624-0.048-0.016-0.016-52.832 31.832-4.136 2.504-4.136-2.504-53.136-31.92c-0.136 0-0.24 0.064-0.384 0.16-0.312 0.232-0.544 0.84-0.44 1.504l12.608 62.28 0.872 4.36-3.232 3.048-45.248 42.624a2.68 2.68 0 0 0-0.864 1.504 1.92 1.92 0 0 0 1.248 0.768l60.624 6.728 4.632 0.512 1.832 4.296 24.864 58.136c0.272 0.48 0.568 0.8 0.768 0.96m0.008 8.096c-3.504 0-6.664-2.576-8.088-5.92l-24.856-58.12-60.624-6.728c-3.488-0.384-6.904-2.848-8-6.328-1.064-3.456 0.408-7.256 3-9.712l45.272-42.632-12.616-62.28c-0.72-3.56 0.624-7.312 3.472-9.456 1.544-1.168 3.384-1.768 5.2-1.768 1.504 0 3.032 0.416 4.408 1.232l52.832 31.832 52.832-31.832a8.432 8.432 0 0 1 9.608 0.552c2.824 2.144 4.176 5.872 3.472 9.44l-12.624 62.28 45.28 42.632c2.576 2.448 2.936 6.256 1.856 9.712-1.112 3.48-3.4 5.944-6.872 6.328l-60.616 6.728-24.848 58.12c-1.44 3.336-4.608 5.92-8.088 5.92z"  horiz-adv-x="1024" />

    
    <glyph glyph-name="-xingji-4" unicode="&#58919;" d="M164.192 283.768l-52.824 31.84-52.832-31.84a8.568 8.568 0 0 0-9.608 0.528 9.552 9.552 0 0 0-3.464 9.456l12.616 62.28-45.272 42.632c-2.592 2.456-4.072 6.256-3 9.712 1.088 3.48 4.512 5.944 7.992 6.328l60.632 6.728 24.864 58.12c1.416 3.344 4.576 5.92 8.08 5.92 3.488 0 6.656-2.576 8.072-5.92l24.856-58.12 60.632-6.728c3.48-0.384 5.776-2.848 6.856-6.328 1.08-3.456 0.72-7.264-1.864-9.712l-45.272-42.632 12.624-62.28c0.72-3.56-0.632-7.296-3.464-9.44a8.512 8.512 0 0 0-9.624-0.544zM314.264 477.376a2.504 2.504 0 0 0 0.72-0.976l24.856-58.12 1.832-4.296 4.64-0.512 60.304-6.552a2.992 2.992 0 0 0 0.44-0.944c0.288-0.912 0.2-1.504 0.264-1.504h0.008l-45.272-42.64-3.24-3.048 0.888-4.36 12.624-62.28c0.128-0.608-0.136-1.232-0.456-1.48l-0.6-0.048-0.032-0.024-52.832 31.84-4.128 2.496-4.128-2.496-53.12-31.92a0.632 0.632 0 0 0-0.376 0.144c-0.32 0.24-0.576 0.856-0.448 1.488l12.608 62.28 0.88 4.36-3.24 3.048-45.24 42.616a2.76 2.76 0 0 0-0.872 1.512c0.088 0.224 0.664 0.704 1.24 0.768l60.624 6.736 4.64 0.512 1.832 4.288 24.872 58.144a2.464 2.464 0 0 0 0.712 0.968m0 8.096c-3.496 0-6.656-2.576-8.072-5.92l-24.864-58.12-60.624-6.728c-3.48-0.384-6.904-2.848-7.992-6.328-1.072-3.456 0.408-7.256 3-9.712l45.264-42.632-12.608-62.28c-0.728-3.56 0.632-7.312 3.464-9.456a8.6 8.6 0 0 1 9.608-0.536l52.84 31.84 52.832-31.84a8.432 8.432 0 0 1 9.592 0.552c2.824 2.144 4.184 5.872 3.464 9.44l-12.624 62.28 45.272 42.632c2.592 2.448 2.952 6.256 1.872 9.712-1.08 3.48-3.384 5.944-6.864 6.328l-60.624 6.728-24.856 58.12c-1.424 3.344-4.592 5.92-8.08 5.92zM517.192 477.376a2.6 2.6 0 0 0 0.72-0.976l24.856-58.12 1.832-4.296 4.64-0.512 60.28-6.552a3.08 3.08 0 0 0 0.44-0.96c0.288-0.904 0.208-1.496 0.272-1.496h0.016l-45.264-42.64-3.24-3.048 0.88-4.36 12.624-62.28a1.592 1.592 0 0 0-0.456-1.48l-0.616-0.04-0.032-0.032-52.832 31.84-4.136 2.496-4.128-2.496-53.12-31.92a0.656 0.656 0 0 0-0.384 0.144c-0.32 0.24-0.568 0.856-0.448 1.488l12.624 62.28 0.88 4.36-3.24 3.048-45.256 42.632a2.64 2.64 0 0 0-0.856 1.504c0.088 0.224 0.672 0.704 1.24 0.768l60.624 6.736 4.64 0.512 1.832 4.288 24.864 58.12a2.688 2.688 0 0 0 0.744 0.992m-0.008 8.096c-3.496 0-6.648-2.576-8.072-5.92l-24.864-58.12-60.624-6.728c-3.472-0.384-6.904-2.848-7.992-6.328-1.072-3.456 0.4-7.256 3-9.712l45.264-42.632-12.624-62.28c-0.72-3.56 0.632-7.312 3.464-9.456a8.624 8.624 0 0 1 9.616-0.536l52.832 31.84 52.832-31.84a8.504 8.504 0 0 1 9.608 0.552c2.832 2.144 4.184 5.872 3.472 9.44l-12.624 62.28 45.264 42.632c2.584 2.448 2.944 6.256 1.856 9.712-1.08 3.48-3.376 5.944-6.856 6.328l-60.608 6.728-24.856 58.12c-1.416 3.344-4.6 5.92-8.088 5.92zM720.096 477.376a2.64 2.64 0 0 0 0.72-0.976l24.848-58.12 1.832-4.296 4.64-0.512 60.296-6.544a3.656 3.656 0 0 0 0.44-0.976c0.28-0.896 0.192-1.48 0.264-1.48h0.016l-45.264-42.648-3.24-3.048 0.88-4.36 12.624-62.248c0.128-0.64-0.144-1.264-0.464-1.504l-0.624-0.048-0.024-0.024-52.832 31.84-4.144 2.496-4.136-2.496-53.12-31.92a0.6 0.6 0 0 0-0.376 0.136c-0.312 0.24-0.576 0.88-0.464 1.496l12.624 62.28 0.88 4.36-3.24 3.048-45.24 42.624a2.88 2.88 0 0 0-0.872 1.512c0.08 0.224 0.672 0.712 1.248 0.776l60.624 6.736 4.64 0.512 1.832 4.296 24.88 58.16a2.592 2.592 0 0 0 0.752 0.928m0 8.096c-3.504 0-6.672-2.576-8.08-5.92l-24.856-58.12-60.624-6.728c-3.496-0.384-6.896-2.848-8-6.328-1.08-3.456 0.424-7.256 3-9.712l45.264-42.632-12.624-62.28c-0.704-3.56 0.64-7.312 3.48-9.456 1.536-1.168 3.376-1.768 5.192-1.768 1.512 0 3.048 0.416 4.424 1.232l52.832 31.832 52.832-31.832a8.456 8.456 0 0 1 9.6 0.552c2.832 2.144 4.176 5.872 3.48 9.44l-12.624 62.28 45.264 42.632c2.584 2.448 2.952 6.256 1.848 9.712-1.064 3.48-3.36 5.944-6.848 6.328l-60.616 6.728-24.84 58.12c-1.464 3.344-4.624 5.92-8.104 5.92zM923 477.376a2.656 2.656 0 0 0 0.728-0.976l24.848-58.12 1.832-4.296 4.64-0.512 60.288-6.544a2.976 2.976 0 0 0 0.464-0.944c0.272-0.912 0.192-1.504 0.264-1.504h0.016l-45.28-42.64-3.232-3.048 0.872-4.36 12.632-62.296a1.624 1.624 0 0 0-0.472-1.488l-0.624-0.048-0.016-0.016-52.832 31.832-4.136 2.504-4.136-2.504-53.136-31.92c-0.136 0-0.24 0.064-0.384 0.16-0.312 0.232-0.544 0.84-0.44 1.504l12.608 62.28 0.872 4.36-3.232 3.048-45.248 42.624a2.68 2.68 0 0 0-0.864 1.504 1.92 1.92 0 0 0 1.248 0.768l60.624 6.728 4.632 0.512 1.832 4.296 24.864 58.136c0.272 0.48 0.568 0.8 0.768 0.96m0.008 8.096c-3.504 0-6.664-2.576-8.088-5.92l-24.856-58.12-60.624-6.728c-3.488-0.384-6.904-2.848-8-6.328-1.064-3.456 0.408-7.256 3-9.712l45.272-42.632-12.616-62.28c-0.72-3.56 0.624-7.312 3.472-9.456 1.544-1.168 3.384-1.768 5.2-1.768 1.504 0 3.032 0.416 4.408 1.232l52.832 31.832 52.832-31.832a8.432 8.432 0 0 1 9.608 0.552c2.824 2.144 4.176 5.872 3.472 9.44l-12.624 62.28 45.28 42.632c2.576 2.448 2.936 6.256 1.856 9.712-1.112 3.48-3.4 5.944-6.872 6.328l-60.616 6.728-24.848 58.12c-1.44 3.336-4.608 5.92-8.088 5.92z"  horiz-adv-x="1024" />

    


  </font>
</defs>
</svg>
